<svg id="Layer_1" data-name="Layer 1" xmlns="http://www.w3.org/2000/svg" viewBox="0 0 306.90642 523"><defs><style>.cls-1{fill:#31363b;opacity:0.55;}.cls-1,.cls-10,.cls-11,.cls-12,.cls-13,.cls-14,.cls-2,.cls-3,.cls-4,.cls-5,.cls-6,.cls-7,.cls-8,.cls-9{fill-rule:evenodd;}.cls-2{fill:#593620;}.cls-3{fill:#6b4229;}.cls-4{fill:#e6e6e6;}.cls-5{fill:#ccc;}.cls-6{fill:#3b2212;}.cls-7{fill:#2e1a0e;}.cls-8{fill:#714e38;}.cls-9{fill:#85634d;}.cls-10{fill:#4a2e1d;}.cls-11{fill:#cd8a39;}.cls-12{fill:#e09a45;}.cls-13{fill:#bd7c2c;opacity:0.4;}.cls-14{fill:#f8b028;}</style></defs><title>mustafatufan3</title><path class="cls-1" d="M501.65723,734.98193c56.9857,0,103.47674-12.79664,103.47674-28.539,0-15.74265-46.491-28.6312-103.47674-28.6312-56.986,0-103.47707,12.88855-103.47707,28.6312,0,15.74233,46.491,28.539,103.47707,28.539Z" transform="translate(-346.54679 -211.98193)"/><path class="cls-2" d="M619.31124,233.43244l-52.6588,5.24733-192.22412,4.51108-6.536,31.39274-11.3238,25.96126,27.43442,18.32036L549.437,336.08069s60.85243-10.1267,66.00785-13.16493c5.06319-3.03792,27.34219-27.4341,27.34219-27.4341l-1.01264-7.08879-9.57459-13.80928-6.8124-33.04972Z" transform="translate(-346.54679 -211.98193)"/><path class="cls-3" d="M617.47009,241.53387Zm-77.1472,34.2465c17.67569,10.95552,41.88773,21.17413,54.31609,32.49761,13.9931-3.12982,24.76447-7.27261,30.196-12.428,10.67916-10.03479.82849-32.8659-2.20942-47.41177a7.12152,7.12152,0,0,1,.18415,1.38093c0,12.6125-35.16723,23.1994-82.48677,25.96126Z" transform="translate(-346.54679 -211.98193)"/><path class="cls-4" d="M501.65723,728.26144c43.26865,0,79.35661-12.33612,87.18165-28.539,9.57459-19.88544,26.60593-168.472,38.20547-274.43452,5.15542-46.85933,9.2063-85.43276,11.13966-100.71488l-17.21548-.36829H382.25369l-17.21549.36829c6.35222,49.98915,35.53552,346.42628,49.437,375.1494,7.82505,16.20285,43.82109,28.539,87.182,28.539Z" transform="translate(-346.54679 -211.98193)"/><path class="cls-5" d="M501.65723,728.26144c22.46282,0,42.99229-3.3143,58.643-8.74577-174.364-34.431-207.22989-287.96742-109.64515-382.23819-.09189-.27638-47.13538-6.16806-85.34085-10.95552,6.72049,54.68438,35.44361,344.95345,49.161,373.40051,7.82505,16.20285,43.82109,28.539,87.182,28.539Z" transform="translate(-346.54679 -211.98193)"/><path class="cls-5" d="M635.97427,343.81383c.36829-3.13015.64467-5.98424,1.01264-8.56195-6.81241,4.32693-15.2821,7.73313-25.04054,10.58722-12.88855,4.32693-29.64351,7.91728-51.094,9.57427a565.27891,565.27891,0,0,1-60.85243,3.22238,565.28321,565.28321,0,0,1-60.85244-3.22238c-21.4502-1.657-38.20549-5.24734-51.094-9.57427a110.80908,110.80908,0,0,1-21.45017-8.46971c.27606,2.57771.64433,5.4318.92071,8.46971a108.48806,108.48806,0,0,0,20.52946,7.91728c12.88855,4.32693,29.64384,7.91728,51.094,9.57427a542.568,542.568,0,0,0,60.85244,3.22205,542.56407,542.56407,0,0,0,60.85243-3.22205c21.45049-1.657,38.20545-5.24734,51.094-9.57427,9.29821-2.66994,17.39964-5.892,24.0279-9.94255Z" transform="translate(-346.54679 -211.98193)"/><path class="cls-6" d="M632.19977,274.58359c5.15543.92073,13.62514,3.86673,17.03135,12.70473,13.16493,34.33874-5.89168,49.43672-37.28475,58.55078-12.88855,4.32693-29.64351,7.91728-51.094,9.57427a565.27891,565.27891,0,0,1-60.85243,3.22238,565.28321,565.28321,0,0,1-60.85244-3.22238c-21.4502-1.657-38.20549-5.24734-51.094-9.57427-31.39274-9.11406-50.44935-24.212-37.28474-58.55078,3.4062-8.838,11.87592-11.784,17.12357-12.70473-3.40651,8.838-4.32693,14.26948,4.14246,22.279,32.22156,30.56424,223.70878,30.56424,255.93033,0,8.46971-8.00952,7.549-13.441,4.23469-22.279Z" transform="translate(-346.54679 -211.98193)"/><path class="cls-7" d="M651.16448,292.99586c9.02215,30.38042-9.57426,44.18938-39.21811,52.84324-12.88855,4.32693-29.64351,7.91728-51.094,9.57427a565.27891,565.27891,0,0,1-60.85243,3.22238,565.28321,565.28321,0,0,1-60.85244-3.22238c-21.4502-1.657-38.20549-5.24734-51.094-9.57427-29.55161-8.65386-48.23993-22.46282-39.21811-52.84324,5.43181,13.0727,19.97735,20.89807,39.21811,26.42178,12.88855,4.41884,29.64384,7.91728,51.094,9.57427a541.57834,541.57834,0,0,0,60.85244,3.31429,541.57428,541.57428,0,0,0,60.85243-3.31429c21.45049-1.657,38.20545-5.15543,51.094-9.57427,19.24077-5.52371,33.78663-13.34908,39.21811-26.42178Z" transform="translate(-346.54679 -211.98193)"/><path class="cls-8" d="M499.99994,274.30753c69.138,0,125.57157-13.99343,125.57157-31.11668,0-17.21549-56.43359-31.20892-125.57157-31.20892s-125.57162,13.99343-125.57162,31.20892c0,17.12325,56.43359,31.11668,125.57162,31.11668Z" transform="translate(-346.54679 -211.98193)"/><path class="cls-9" d="M528.07869,271.17738c52.65909-2.48547,92.61346-13.90119,92.61346-27.71047,0-9.206-17.7676-17.39964-45.202-22.55506Z" transform="translate(-346.54679 -211.98193)"/><path class="cls-6" d="M499.99994,260.95877c51.46229,0,93.44225-8.00951,93.44225-17.76792,0-9.85064-41.98-17.76792-93.44225-17.76792s-93.442,7.91728-93.442,17.76792c0,9.75841,41.97964,17.76792,93.442,17.76792Z" transform="translate(-346.54679 -211.98193)"/><path class="cls-8" d="M499.99994,233.06415c-44.64959,0-82.02658,5.98392-91.23256,13.90119,9.206,8.00919,46.583,13.99343,91.23256,13.99343s82.02654-5.98424,91.23283-13.99343c-9.20629-7.91727-46.58325-13.90119-91.23283-13.90119Z" transform="translate(-346.54679 -211.98193)"/><path class="cls-6" d="M527.8023,257.82863c27.80272-1.19679,49.7131-5.33957,55.78925-10.67914-4.603-3.95864-18.2281-7.36484-36.64039-9.2063-6.7205,7.27294-14.3614,15.37436-19.14886,19.88544Z" transform="translate(-346.54679 -211.98193)"/><path class="cls-10" d="M637.99987,282.5931a15.40313,15.40313,0,0,1,9.02183,8.83768c12.6125,32.774-13.07271,45.66255-39.21811,52.1989,5.4318-8.19366,9.11409-22.18676,1.19678-33.3261,10.31087-3.13015,18.32036-6.90464,22.92335-11.32381,6.44411-6.07582,7.45708-10.67881,6.07615-16.38667Z" transform="translate(-346.54679 -211.98193)"/><path d="M431.33883,467.147c-.0332-.1289-.06836-.30468-.10156-.52636-.03418-.22071-.07812-.43848-.13379-.65528-.05566-.21582-.10644-.40918-.15039-.582l-.03515-.40527q-.05127-.19484-.18653-1.125c-.09082-.62012-.18359-1.28809-.27441-2-.09082-.71094-.19629-1.3877-.31446-2.02344s-.19921-1.042-.24316-1.21387a36.69867,36.69867,0,0,0-1.5-3.40918,22.42015,22.42015,0,0,0-2.50976-3.97851,13.82813,13.82813,0,0,0-3.31348-3.08008,4.56625,4.56625,0,0,0-3.76465-.68457,9.04836,9.04836,0,0,0-3.43164,1.81543,16.075,16.075,0,0,0-2.97559,3.18164,12.31526,12.31526,0,0,0-1.86035,3.89648,7.033,7.033,0,0,0-.14844,3.97364,5.938,5.938,0,0,0,.81543,1.82422q.564.85692,1.1543,1.66992.58887.81591,1.16406,1.70215a6.52882,6.52882,0,0,1,.84082,1.92187,4.55821,4.55821,0,0,1,.10938,1.62793c-.06055.56836-.459.94727-1.19141,1.13574a2.2535,2.2535,0,0,1-2.25976-.86621,18.03178,18.03178,0,0,1-2.25147-3.11328q-1.158-1.94385-2.45459-4.16309a29.34145,29.34145,0,0,0-2.84131-4.06347,11.74581,11.74581,0,0,0-3.35156-2.8291,5.40993,5.40993,0,0,0-4.07178-.40039,6.58193,6.58193,0,0,0-2.91406,1.54492,6.8024,6.8024,0,0,0-1.72461,2.5498,10.17,10.17,0,0,0-.6416,3.13379,10.93011,10.93011,0,0,0,.33252,3.29688,37.05546,37.05546,0,0,0,1.66553,4.98828,36.62726,36.62726,0,0,1,1.64843,4.92383,6.72414,6.72414,0,0,1,.23145,1.69921q-.00219.79542-1.10254,1.07911a2.02564,2.02564,0,0,1-1.28906-.04883,3.073,3.073,0,0,1-1.043-.69727,5.4312,5.4312,0,0,1-.834-1.0957c-.2461-.41992-.457-.79-.63282-1.11426q-.55371-2.68652-1.23535-4.92578-.67968-2.24121-1.36767-4.2373-.68775-1.99659-1.38331-4.02735-.69579-2.02734-1.29687-4.3584c-.02148-.085-.06055-.23633-.11621-.45312-.05567-.21485-.10352-.44434-.14258-.68653s-.08447-.46191-.13476-.65722c-.04981-.19336-.08594-.333-.1084-.41992a1.14008,1.14008,0,0,1,.24023-.40723,1.14629,1.14629,0,0,0,.24024-.40723l.32324-.083a1.86273,1.86273,0,0,1,1.81836.36035,2.70032,2.70032,0,0,1,.95166,1.54882,16.17264,16.17264,0,0,1,1.40185-2.1914,7.92132,7.92132,0,0,1,1.31153-1.33789,4.9935,4.9935,0,0,1,1.45312-.78906q.79248-.27247,1.957-.57325a14.17868,14.17868,0,0,1,3.49805-.4873,10.44228,10.44228,0,0,1,3.042.42285,9.55269,9.55269,0,0,1,2.77442,1.38965,25.7899,25.7899,0,0,1,2.77148,2.18555.55678.55678,0,0,1,.16992-.00977.52962.52962,0,0,0,.16992-.00977,3.71309,3.71309,0,0,0,.48926-.78125q.42334-.76464,1.16895-1.88867.74561-1.125,1.76465-2.52539a28.385,28.385,0,0,1,2.209-2.6748,19.52489,19.52489,0,0,1,2.52051-2.27246,7.85638,7.85638,0,0,1,2.75293-1.36426,8.53829,8.53829,0,0,1,4.14941-.10449,11.38563,11.38563,0,0,1,3.7002,1.63574,16.52883,16.52883,0,0,1,3.21386,2.8291,27.22072,27.22072,0,0,1,2.63575,3.53027,26.21712,26.21712,0,0,1,1.98046,3.80371,26.68288,26.68288,0,0,1,1.24219,3.61231q.167.64893.54395,2.24121a21.84437,21.84437,0,0,1,.50976,3.31934,10.60757,10.60757,0,0,1-.1875,3.15429,2.05415,2.05415,0,0,1-1.4873,1.72852,1.29959,1.29959,0,0,1-.89942-.00879,1.45326,1.45326,0,0,1-.53027-.4502,1.97011,1.97011,0,0,1-.3125-.67871C431.48922,467.73,431.417,467.44873,431.33883,467.147Z" transform="translate(-346.54679 -211.98193)"/><path d="M460.6318,452.00439a10.2707,10.2707,0,0,0-2.03027,2.69727q-.76026,1.47363-1.585,2.82324a13.05762,13.05762,0,0,1-1.95117,2.47071,6.87774,6.87774,0,0,1-3.19727,1.65136,9.05056,9.05056,0,0,1-4.46484.082,11.7572,11.7572,0,0,1-4.03321-1.85937,19.34321,19.34321,0,0,1-3.52539-3.23242,28.98372,28.98372,0,0,1-2.89843-4.01465,36.7887,36.7887,0,0,1-2.20313-4.26367,26.73582,26.73582,0,0,1-1.39844-3.95313,11.97061,11.97061,0,0,1-1.21582-5.51758,4.6277,4.6277,0,0,1,1.06446-2.96679,1.29953,1.29953,0,0,1,1.78222-.18262q.91992.62548.91895,2.76465a2.63728,2.63728,0,0,0,.01465.85937c.05078.37793.10547.76758.16211,1.166q.085.59911.15429,1.13379a7.166,7.166,0,0,0,.11914.72851,24.2058,24.2058,0,0,0,1.084,3.13672,31.48364,31.48364,0,0,0,1.80273,3.6416,31.94036,31.94036,0,0,0,2.416,3.6211,17.43112,17.43112,0,0,0,2.916,3.00976,10.57368,10.57368,0,0,0,3.33692,1.832,6.26887,6.26887,0,0,0,3.583.11133,4.743,4.743,0,0,0,2.36132-1.8164,18.04931,18.04931,0,0,0,2.11426-3.44434,21.8442,21.8442,0,0,0,1.42285-3.85156,6.36859,6.36859,0,0,0,.2041-3.08887q-.167-.646-.51855-2.14355-.35157-1.49708-.78516-3.18067-.43359-1.68163-.84961-3.16211-.416-1.4795-.5664-2.0625a3.759,3.759,0,0,1,.584-1.2207,1.78627,1.78627,0,0,1,1.00781-.63867,1.56834,1.56834,0,0,1,1.56055.70117,11.02169,11.02169,0,0,1,1.52539,2.43652,28.51711,28.51711,0,0,1,1.35449,3.37793q.61232,1.84424,1.12793,3.57422c.34278,1.15332.65039,2.16895.92188,3.04a9.71789,9.71789,0,0,0,.65234,1.72949,27.10152,27.10152,0,0,0,1.68946,2.6709q1.03271,1.46044,2.00683,2.83008.97413,1.37256,1.75293,2.5166a6.52279,6.52279,0,0,1,.94531,1.793q.249.96972-.25,1.30664a4.42069,4.42069,0,0,1-1.34179.55176,2.05791,2.05791,0,0,1-1.6543-.126,3.23236,3.23236,0,0,1-1.05371-1.14355,13.13821,13.13821,0,0,1-.81445-1.6875,14.96727,14.96727,0,0,0-.93848-1.89746,8.074,8.074,0,0,0-1.3418-1.72461A4.361,4.361,0,0,0,460.6318,452.00439Z" transform="translate(-346.54679 -211.98193)"/><path d="M470.54587,451.105a2.66674,2.66674,0,0,1,.8125-.72754,4.37471,4.37471,0,0,1,.91406-.33984,2.681,2.681,0,0,1,1.24023-.00879,5.33048,5.33048,0,0,1,1.25.43652c.39746.19824.79981.38184,1.21289.55078a5.87524,5.87524,0,0,0,1.2666.36426q1.86476.27832,2.98633.47266a16.37538,16.37538,0,0,0,2.02832.23633,8.56406,8.56406,0,0,0,2.02442-.17774q1.11621-.2168,2.86328-.66894,1.35938-.3501,3.30859-.81836a17.55154,17.55154,0,0,0,3.60547-1.27442,7.41,7.41,0,0,0,2.64356-2.0625,3.50518,3.50518,0,0,0,.48828-3.19726,3.90978,3.90978,0,0,0-1.7627-2.68555,7.28578,7.28578,0,0,0-3.30469-.9082,20.4692,20.4692,0,0,0-4.28613.24316q-2.3247.356-4.78516.71582a48.45511,48.45511,0,0,1-4.88281.46484,14.55518,14.55518,0,0,1-4.50195-.46191,8.26051,8.26051,0,0,1-3.64649-2.0957,9.57543,9.57543,0,0,1-2.36621-4.35938,6.00787,6.00787,0,0,1,1.14649-3.98828,11.99487,11.99487,0,0,1,3.39648-3.15332,17.01323,17.01323,0,0,1,4.68653-2.03613,15.71964,15.71964,0,0,1,4.92382-.5791,8.81811,8.81811,0,0,1,4.18262,1.23437,5.48243,5.48243,0,0,1,2.47168,3.2959,4.85118,4.85118,0,0,1,.35645,2.18652,2.90755,2.90755,0,0,1-.54786,1.48633,1.73987,1.73987,0,0,1-1.0332.68067,1.20332,1.20332,0,0,1-1.02344-.21875,1.92486,1.92486,0,0,1-.60742-1.15528,4.87235,4.87235,0,0,1,.21875-2.23047,2.99168,2.99168,0,0,0-1.98926-1.55761,8.97326,8.97326,0,0,0-3.10644-.26856,13.52594,13.52594,0,0,0-3.49512.76172,14.83724,14.83724,0,0,0-3.19043,1.54785,7.27148,7.27148,0,0,0-2.1084,1.99317,2.23842,2.23842,0,0,0-.30859,2.15039,4.06082,4.06082,0,0,0,1.9082,2.71679,7.85973,7.85973,0,0,0,3.37012.89063,21.79906,21.79906,0,0,0,4.39063-.23438q2.42871-.34863,4.97949-.76562,2.54883-.41456,4.98828-.5957a15.36287,15.36287,0,0,1,4.56445.30664,8.07938,8.07938,0,0,1,3.65332,1.85351,7.88592,7.88592,0,0,1,2.209,4.02051,6.01069,6.01069,0,0,1-.14258,3.72852,9.10723,9.10723,0,0,1-1.9961,3.10253,12.3234,12.3234,0,0,1-3.09472,2.31739,15.72138,15.72138,0,0,1-3.44238,1.37011q-1.68457.43361-3.59961.89356-1.91895.46-3.94141.77441a38.58232,38.58232,0,0,1-4.13965.41114,15.39649,15.39649,0,0,1-4.05469-.335,12.48223,12.48223,0,0,1-3.64941-1.44042A10.53249,10.53249,0,0,1,470.54587,451.105Z" transform="translate(-346.54679 -211.98193)"/><path d="M508.6318,425.896q-.51855.13476-1.8125.46679a17.21315,17.21315,0,0,1-2.74414.4668,10.15008,10.15008,0,0,1-2.71582-.09375,1.67881,1.67881,0,0,1-1.51562-1.19629,4.28184,4.28184,0,0,1-.09473-.77051.575.575,0,0,1,.48926-.64355l6.51562-2.30078q-.35888-2.45947-.62109-4.01465a22.1791,22.1791,0,0,0-.669-2.86475q-.40722-1.30884-.8789-2.74121-.47314-1.43115-1.13867-3.74365a1.21152,1.21152,0,0,1,.01074-.76172,1.27528,1.27528,0,0,1,.38574-.51416,2.95547,2.95547,0,0,1,.59766-.36084,3.46809,3.46809,0,0,1,.5332-.20654,1.60588,1.60588,0,0,1,.875.05029,3.18568,3.18568,0,0,1,.91113.45459,3.88009,3.88009,0,0,1,.72656.67627,1.99216,1.99216,0,0,1,.40235.7583l3.63769,11.96924,5.63282-1.17578a3.298,3.298,0,0,1,2.14648-.10547,2.36342,2.36342,0,0,1,1.52832,1.78027,3.18934,3.18934,0,0,1-1.61816,1.48633,13.69837,13.69837,0,0,1-2.26367.72266q-1.207.27686-2.36231.60937a4.07174,4.07174,0,0,0-1.91211,1.14746q.09962.38966.61426,2.11914.51415,1.73145,1.19726,4.1084.68262,2.38038,1.48047,5.07129.79688,2.69238,1.45508,4.97266.65478,2.28222,1.10547,3.8916.4497,1.60986.5,1.80273-1.25684,1.28907-2.43652.45606a8.29068,8.29068,0,0,1-2.27344-2.79492,29.62454,29.62454,0,0,1-2.04492-4.71875q-.95361-2.75684-1.69336-5.499-.74268-2.74218-1.27735-5.08789Q508.76852,426.96387,508.6318,425.896Z" transform="translate(-346.54679 -211.98193)"/><path d="M525.7236,433.56787a8.31071,8.31071,0,0,1-.00293-2.69141,9.89889,9.89889,0,0,1,1.09473-3.249,12.83285,12.83285,0,0,1,2.48047-3.22851,14.2227,14.2227,0,0,1,4.041-2.66309,20.67324,20.67324,0,0,1,5.80859-1.56543,31.30916,31.30916,0,0,1,7.78028.06494c-.01074-.043-.06641-.25976-.167-.64844l-.21485-.56543a7.25774,7.25774,0,0,0-1.85547-3.17919,12.81511,12.81511,0,0,0-3.30078-2.49659,14.81712,14.81712,0,0,0-3.85156-1.42334,7.76808,7.76808,0,0,0-3.58984-.00537,3.1457,3.1457,0,0,0-1.083.48535,5.765,5.765,0,0,0-.81348.728c-.25195.27149-.498.52051-.74023.74317a2.15372,2.15372,0,0,1-.94336.48486c-.08789.02246-.13574.01172-.14746-.03223-.05371-.03076-.1084-.06347-.16309-.09521q-.1626-.09669-.43848-.23242c-.18457-.08985-.28222-.15674-.29394-.20069a4.57133,4.57133,0,0,1-.0957-2.11426,3.67021,3.67021,0,0,1,.81445-1.65869,6.25317,6.25317,0,0,1,1.47363-1.24316,6.81545,6.81545,0,0,1,1.89942-.79981,13.0099,13.0099,0,0,1,5.35937.3086,20.12569,20.12569,0,0,1,5.19434,2.21533,22.84253,22.84253,0,0,1,4.65527,3.73535,35.47253,35.47253,0,0,1,3.89355,4.79346,26.22643,26.22643,0,0,1,2.78614,5.32031,22.67111,22.67111,0,0,1,1.499,5.54883c-.043.01172-.1748.03418-.39648.06836s-.46387.07519-.72852.11816a4.292,4.292,0,0,1-.67187.07031l-.34082.01856a19.4905,19.4905,0,0,0-4.3086-4.13477,17.50223,17.50223,0,0,0-4.09277-2.085,12.44915,12.44915,0,0,0-3.457-.69629q-1.53369-.05272-2.48828-.01464-.97119.25048-2.26368.72265a22.7957,22.7957,0,0,0-5.28808,2.77832,12.45829,12.45829,0,0,0-2.24707,1.99317,6.59159,6.59159,0,0,0-1.33692,2.31152,4.69442,4.69442,0,0,0-.03711,2.667,3.44632,3.44632,0,0,0,1.90528,2.30371,10.39531,10.39531,0,0,0,3.42676.98047,16.56353,16.56353,0,0,0,3.80175.02051,22.29146,22.29146,0,0,0,2.97852-.49219,33.23845,33.23845,0,0,0,3.50879-1.11133q1.69921-.64452,3.34668-1.3457,1.64648-.7002,3.28027-1.32812A30.14323,30.14323,0,0,1,554.709,431.687c.08594-.02246.23633-.06152.45313-.11719q.32226-.08349.6875-.14257c.24218-.04.46191-.085.65625-.13477.19336-.0498.333-.08594.41992-.1084a.81942.81942,0,0,1,.73242.43164,4.83463,4.83463,0,0,1,.26465.75977q.10107.38964-.5918,1.0498a13.95091,13.95091,0,0,1-1.86914,1.44922q-1.17774.78809-2.63867,1.67969-1.46045.89649-2.832,1.59375-1.37256.7002-2.57617,1.25a12.02788,12.02788,0,0,1-1.72168.68555,40.51321,40.51321,0,0,1-5.877,1.03222,20.28944,20.28944,0,0,1-5.99121-.21484,11.67808,11.67808,0,0,1-5.0332-2.25879A9.02331,9.02331,0,0,1,525.7236,433.56787Z" transform="translate(-346.54679 -211.98193)"/><path d="M577.40524,409.96094q1.35938-.3501,1.499.99463a.91289.91289,0,0,1,.30957,1.33545,4.11905,4.11905,0,0,1-1.80468,1.43115,17.48263,17.48263,0,0,1-3.49317,1.17724,26.09788,26.09788,0,0,1-4.80078.64991,9.96083,9.96083,0,0,0,2.31641,4.30273,39.93317,39.93317,0,0,0,3.543,3.43652q1.85888,1.5879,3.49121,3.10157a6.87914,6.87914,0,0,1,2.09863,3.32422,1.14283,1.14283,0,0,1-.2334,1.23437,2.1908,2.1908,0,0,1-1.09765.55762,2.66363,2.66363,0,0,1-1.51758-.127,6.592,6.592,0,0,1-1.667-.8457,15.16118,15.16118,0,0,1-1.5166-1.19726q-.65331-.65772-1.04492-1.11036-.39258-.45117-1.12793-1.29687-.73681-.84522-1.71777-1.97363-.98-1.12647-1.98633-2.35157-1.00488-1.2246-1.95312-2.36035-.94923-1.13452-1.66895-2.05469a14.02544,14.02544,0,0,1-1.0957-1.30468l-.89551-.52832a7.35058,7.35058,0,0,1-1.12207.59961q-.832.3889-1.75293.832-.91992.44457-1.77637.87109a7.36183,7.36183,0,0,1-1.24414.5293l-.32324.083a.76.76,0,0,1-.80371-.17286,1.867,1.867,0,0,1-.41992-.82373,2.04191,2.04191,0,0,1,.34375-1.8833,5.15866,5.15866,0,0,1,1.65918-1.32519,16.15105,16.15105,0,0,1,2.20605-.94776q1.17188-.405,1.93164-.66992-.62988-1.90869-1.37793-4.54492a41.189,41.189,0,0,1-1.16015-5.56738,38.96007,38.96007,0,0,1-.375-5.874,18.56858,18.56858,0,0,1,.85937-5.50048,11.72457,11.72457,0,0,1,2.60938-4.46875,9.8823,9.8823,0,0,1,4.89257-2.71,10.23474,10.23474,0,0,1,4.043-.11132,16.88779,16.88779,0,0,1,4.44336,1.3042,14.22413,14.22413,0,0,1,3.76953,2.44531,6.71425,6.71425,0,0,1,2.09082,3.2915l-1.48828.38379a3.30887,3.30887,0,0,1-2.54785-.37988q-1.25391-.71045-2.66211-1.62451a20.63221,20.63221,0,0,0-2.88769-1.56739,4.5198,4.5198,0,0,0-3.03418-.25341,8.63023,8.63023,0,0,0-3.76172,2.00488,10.30416,10.30416,0,0,0-2.43946,3.38965A11.681,11.681,0,0,0,561.707,397.79a13.63193,13.63193,0,0,0,.40332,4.24316l.167.64746,3.55078,8.95459a1.60662,1.60662,0,0,0,.77051.043q.60645-.05346,1.91016-.21777,1.30516-.16113,3.458-.51074Q574.11862,410.60254,577.40524,409.96094Z" transform="translate(-346.54679 -211.98193)"/><path d="M584.22751,418.48682a8.30706,8.30706,0,0,1-.00391-2.69141,9.89881,9.89881,0,0,1,1.09473-3.249,12.81541,12.81541,0,0,1,2.48144-3.22852,14.21689,14.21689,0,0,1,4.04-2.66308,20.68178,20.68178,0,0,1,5.80859-1.56543,31.33233,31.33233,0,0,1,7.78028.06494c-.00977-.043-.06641-.25977-.166-.64844l-.21582-.56543a7.25535,7.25535,0,0,0-1.85449-3.1792,12.81547,12.81547,0,0,0-3.30078-2.49658,14.84247,14.84247,0,0,0-3.85156-1.42334,7.77227,7.77227,0,0,0-3.59082-.00537,3.14036,3.14036,0,0,0-1.082.48535,5.71107,5.71107,0,0,0-.81347.728c-.252.27148-.499.5205-.74024.74316a2.15579,2.15579,0,0,1-.94531.48486c-.08594.02246-.13476.01172-.14551-.03222-.05468-.03076-.10937-.06348-.16308-.09522q-.16407-.09668-.43946-.23242-.27685-.13476-.293-.20068a4.57227,4.57227,0,0,1-.09668-2.11426,3.67173,3.67173,0,0,1,.81543-1.65869,6.24761,6.24761,0,0,1,1.47265-1.24317,6.82748,6.82748,0,0,1,1.89942-.7998,13.009,13.009,0,0,1,5.35937.30859,20.13184,20.13184,0,0,1,5.19531,2.21533,22.89591,22.89591,0,0,1,4.65528,3.73536,35.46576,35.46576,0,0,1,3.89257,4.79345,26.22291,26.22291,0,0,1,2.78614,5.31983,22.72,22.72,0,0,1,1.5,5.5498c-.04395.01123-.17578.03369-.39649.06787-.22168.03418-.46386.07471-.72949.11817a4.2124,4.2124,0,0,1-.67187.07031l-.33985.01855a19.486,19.486,0,0,0-4.31054-4.13476,17.49184,17.49184,0,0,0-4.09083-2.085,12.47268,12.47268,0,0,0-3.458-.69629q-1.53223-.05274-2.48828-.01416-.96974.24975-2.26368.72168a22.803,22.803,0,0,0-5.28906,2.77881,12.55135,12.55135,0,0,0-2.24609,1.99316,6.62407,6.62407,0,0,0-1.33692,2.311,4.68776,4.68776,0,0,0-.03711,2.66748,3.44821,3.44821,0,0,0,1.90528,2.3042,10.38692,10.38692,0,0,0,3.42773.97949,16.52752,16.52752,0,0,0,3.80078.021,22.157,22.157,0,0,0,2.97852-.49218,33.21579,33.21579,0,0,0,3.50976-1.11133q1.69776-.64454,3.34571-1.3457,1.64648-.7002,3.28125-1.32813a30.23713,30.23713,0,0,1,3.31445-1.062c.08691-.022.23731-.061.45313-.1167s.44433-.103.68847-.14307c.24121-.03955.46094-.08447.65528-.13427.19336-.0503.334-.08643.41992-.1084a.8161.8161,0,0,1,.73242.43164,4.93949,4.93949,0,0,1,.26562.75976q.09961.38966-.59179,1.0503a13.97317,13.97317,0,0,1-1.87012,1.44824q-1.17774.78808-2.63769,1.68017-1.46191.89649-2.834,1.59375-1.37109.7002-2.57617,1.25a11.9822,11.9822,0,0,1-1.7207.68555,40.51318,40.51318,0,0,1-5.877,1.03223,20.28409,20.28409,0,0,1-5.99023-.21485,11.66758,11.66758,0,0,1-5.0332-2.25878A9.01279,9.01279,0,0,1,584.22751,418.48682Z" transform="translate(-346.54679 -211.98193)"/><path class="cls-11" d="M608.72432,612.63239c7.549-55.697,15.55818-126.30785,22.00264-185.31916C606.14661,438.729,557.53838,446.554,501.65723,446.554s-104.48969-7.825-129.07-19.24076c6.44444,59.01131,14.45363,129.62215,22.00262,185.31916,26.69784,7.08879,64.71916,11.59987,107.06742,11.59987,42.256,0,80.36925-4.51108,107.06709-11.59987Z" transform="translate(-346.54679 -211.98193)"/><path class="cls-12" d="M621.98116,430.90358c-1.93336.64467-3.95864,1.38093-6.16806,2.02527L592.42956,616.315c2.02527-.36829,4.05055-.73659,5.98391-1.19679Zm-26.32952,7.1807c-2.0253.36829-3.95866.73658-6.07617,1.10487L572.54415,619.62927c2.02557-.27638,3.95861-.55244,5.892-.82882Zm-31.0248,4.87936c-2.02527.27606-3.95864.4602-5.98391.73659L549.713,622.207c2.02528-.18415,3.95866-.36829,5.98392-.55244Zm-28.26258,2.57771c-1.93337.09224-3.86673.18415-5.892.27606l-2.946,177.7705c1.93336-.09224,3.95864-.18415,5.892-.27638Zm-28.63121.92073c-1.93336.09191-3.8664.09191-5.892.09191l3.03823,177.586h5.892Zm-31.57688-.46052c-1.93335-.09191-3.86673-.18415-5.892-.27606l3.03792,177.77017c1.93336.09224,3.86673.18415,5.892.27638Zm-28.17068-2.02528c-1.93335-.18414-3.95864-.36829-5.892-.55244L451.0234,621.9306c1.93339.18415,3.86673.36829,5.892.55244ZM417.053,439.8335c-2.0256-.3683-4.05087-.73626-5.98424-1.10455l17.12358,180.532c1.93337.276,3.95864.55243,5.98392.82849Zm-26.1454-5.89168c-2.11751-.64468-4.235-1.289-6.16806-1.93337L408.215,615.85477q3.03791.552,6.07615,1.10455Z" transform="translate(-346.54679 -211.98193)"/><path class="cls-13" d="M397.35167,435.69071a145.7327,145.7327,0,0,1-24.76448-8.37748c6.44444,59.01131,14.45363,129.62215,21.91073,185.31916q13.25649,3.45249,29.82764,6.07615c-29.0914-55.697-37.83718-123.73014-26.97389-183.01783Z" transform="translate(-346.54679 -211.98193)"/><path class="cls-14" d="M629.99035,434.49393l.73661-7.1807-.36832.18415-3.31429-2.57772-2.48547,4.97128c-26.0535,10.03479-71.34743,16.663-122.90165,16.663-51.83061,0-97.40092-6.72049-123.36216-16.84719l-2.39357-4.78714-3.13016,2.4858-.18415-.09223.73658,7.1807c24.85639,11.23157,73.00443,18.87279,128.33346,18.87279,55.32872,0,103.3845-7.64122,128.33312-18.87279Z" transform="translate(-346.54679 -211.98193)"/></svg>