<svg id="Layer_1" data-name="Layer 1" xmlns="http://www.w3.org/2000/svg" width="518.9377" height="974" viewBox="0 0 518.9377 974">
  <defs>
    <style>
      .cls-1 {
        fill: #464c50;
      }

      .cls-2 {
        fill: #31363b;
        opacity: 0.55;
      }

      .cls-10, .cls-11, .cls-12, .cls-13, .cls-14, .cls-15, .cls-2, .cls-3, .cls-4, .cls-5, .cls-6, .cls-7, .cls-8, .cls-9 {
        fill-rule: evenodd;
      }

      .cls-3 {
        fill: #593620;
      }

      .cls-4 {
        fill: #6b4229;
      }

      .cls-5 {
        fill: #e6e6e6;
      }

      .cls-6 {
        fill: #ccc;
      }

      .cls-7 {
        fill: #3b2212;
      }

      .cls-8 {
        fill: #2e1a0e;
      }

      .cls-9 {
        fill: #714e38;
      }

      .cls-10 {
        fill: #85634d;
      }

      .cls-11 {
        fill: #4a2e1d;
      }

      .cls-12 {
        fill: #cd8a39;
      }

      .cls-13 {
        fill: #e09a45;
      }

      .cls-14 {
        fill: #bd7c2c;
        opacity: 0.4;
      }

      .cls-15 {
        fill: #f8b028;
      }
    </style>
  </defs>
  <title>mustafatufan_icon</title>
  <g>
    <g>
      <path class="cls-1" d="M313.0725,946.2756v19.4829c0,4.7324,4.072,5.1717,11.3366,4.7324v14.9685c-21.5726,2.2011-27.8464-4.2932-27.8464-19.7009V946.2756h-8.8053V930.427h8.8053V919.9714l16.51-4.9538V930.427h11.3366v15.8486Z" transform="translate(-240.5312 -13)"/>
      <path class="cls-1" d="M386.9208,930.427v55.0324H370.4117v-5.1733C367.44,984.358,361.9376,987,354.6721,987c-11.1161,0-20.5818-7.9243-20.5818-22.7838V930.427H350.6v31.3685c0,6.8246,4.2932,10.0164,9.5755,10.0164,6.0534,0,10.236-3.5221,10.236-11.3374V930.427Z" transform="translate(-240.5312 -13)"/>
      <path class="cls-1" d="M419.0572,930.427h10.236v15.8486h-10.236v39.1838H402.5464V946.2756H395.172V930.427h7.3744c0-15.4094,8.4758-24.6546,26.7468-23.5549v15.85C423.1291,922.1725,419.0572,924.0433,419.0572,930.427Z" transform="translate(-240.5312 -13)"/>
      <path class="cls-1" d="M490.1544,930.427v55.0324H473.6437v-5.1733c-3.631,4.1826-9.0256,6.7139-16.3984,6.7139-14.4186,0-26.3058-12.6567-26.3058-29.0568s11.8872-29.0568,26.3058-29.0568c7.3728,0,12.7674,2.5313,16.3984,6.7139V930.427Zm-16.5107,27.5162c0-8.2545-5.5019-13.4279-13.0976-13.4279-7.594,0-13.0976,5.1734-13.0976,13.4279s5.5036,13.4278,13.0976,13.4278C468.1418,971.371,473.6437,966.1977,473.6437,957.9432Z" transform="translate(-240.5312 -13)"/>
      <path class="cls-1" d="M555.086,951.67v33.7893H538.577V954.0909c0-6.8246-4.2933-10.0164-9.5756-10.0164-6.055,0-10.236,3.522-10.236,11.3373v30.0476H502.2547V930.427h16.5107V935.6c2.9706-4.0736,8.4742-6.7139,15.738-6.7139C545.6211,928.8864,555.086,936.8107,555.086,951.67Z" transform="translate(-240.5312 -13)"/>
      <path class="cls-1" d="M565.3187,976.5444A10.4557,10.4557,0,1,1,575.7744,987,10.5235,10.5235,0,0,1,565.3187,976.5444Z" transform="translate(-240.5312 -13)"/>
      <path class="cls-1" d="M620.79,972.2512a14.366,14.366,0,0,0,10.5662-4.1826l13.2083,7.5957C639.17,983.1477,631.0264,987,620.5691,987c-18.8208,0-30.4868-12.6567-30.4868-29.0568s11.8873-29.0568,29.2764-29.0568c16.07,0,27.9571,12.4371,27.9571,29.0568a31.9364,31.9364,0,0,1-.66,6.6033H607.5821C609.6726,970.27,614.7369,972.2512,620.79,972.2512ZM630.9158,952.22c-1.76-6.3837-6.714-8.6954-11.666-8.6954-6.2747,0-10.4573,3.0812-11.9979,8.6954Z" transform="translate(-240.5312 -13)"/>
      <path class="cls-1" d="M684.0724,972.2512a14.366,14.366,0,0,0,10.5662-4.1826l13.2083,7.5957C702.4523,983.1477,694.3084,987,683.8511,987c-18.8208,0-30.4868-12.6567-30.4868-29.0568s11.8873-29.0568,29.2764-29.0568c16.07,0,27.9571,12.4371,27.9571,29.0568a31.9364,31.9364,0,0,1-.66,6.6033H670.8641C672.9546,970.27,678.0189,972.2512,684.0724,972.2512ZM694.1977,952.22c-1.76-6.3837-6.7139-8.6954-11.6659-8.6954-6.2747,0-10.4573,3.0812-11.9979,8.6954Z" transform="translate(-240.5312 -13)"/>
    </g>
    <path class="cls-2" d="M502.8021,897.323c96.3552,0,174.9654-21.6374,174.9654-48.2556s-78.61-48.4115-174.9654-48.4115-174.9658,21.7928-174.9658,48.4115,78.61,48.2556,174.9658,48.2556Z" transform="translate(-240.5312 -13)"/>
    <path class="cls-3" d="M701.7393,49.27,612.7,58.1425,287.6751,65.77,276.6236,118.851l-19.1471,43.897,46.3879,30.9773,279.7269,29.1091s102.8933-17.1229,111.61-22.26c8.5612-5.1367,46.232-46.3873,46.232-46.3873l-1.7122-11.9862-16.1894-23.35L712.0133,62.9684Z" transform="translate(-240.5312 -13)"/>
    <path class="cls-4" d="M698.6262,62.9684ZM568.1806,120.8746c29.8872,18.5243,70.8266,35.8026,91.8412,54.9491,23.6605-5.2921,41.8735-12.297,51.0574-21.0141,18.057-16.9675,1.4008-55.5718-3.7359-80.167a12.0429,12.0429,0,0,1,.3114,2.335c0,21.3261-59.4631,39.2271-139.4741,43.897Z" transform="translate(-240.5312 -13)"/>
    <path class="cls-5" d="M502.8021,885.96c73.1616,0,134.1815-20.8587,147.4126-48.2555,16.1893-33.6236,44.987-284.8636,64.6-464.0321,8.7171-79.2328,15.5666-144.4553,18.8357-170.2954l-29.1091-.6227H300.9067l-29.109.6227c10.7407,84.525,60.0858,585.7605,83.5914,634.3275C368.62,865.1008,429.4847,885.96,502.8021,885.96Z" transform="translate(-240.5312 -13)"/>
    <path class="cls-6" d="M502.8021,885.96c37.9817,0,72.6943-5.604,99.1576-14.7879C307.1335,812.9534,251.5617,384.2573,416.5644,224.858c-.1554-.4673-79.7-10.4294-144.3-18.5243,11.3635,92.4639,59.93,583.27,83.1247,631.37C368.62,865.1008,429.4847,885.96,502.8021,885.96Z" transform="translate(-240.5312 -13)"/>
    <path class="cls-6" d="M729.9143,235.91c.6227-5.2927,1.09-10.1186,1.7122-14.4771-11.5188,7.3162-25.84,13.0757-42.34,17.9016-21.7928,7.3162-50.1232,13.387-86.3931,16.1888A955.8146,955.8146,0,0,1,500,260.972a955.8217,955.8217,0,0,1-102.8933-5.4486c-36.2694-2.8018-64.6-8.8726-86.3932-16.1888-13.6984-4.0472-25.9954-8.7172-36.2694-14.3212.4668,4.3586,1.0895,9.1845,1.5568,14.3212,9.9621,5.2926,21.7929,9.6512,34.7126,13.387,21.7928,7.3163,50.1238,13.3871,86.3932,16.1888A917.4143,917.4143,0,0,0,500,274.3585,917.4077,917.4077,0,0,0,602.8932,268.91c36.27-2.8017,64.6-8.8725,86.3931-16.1888,15.7221-4.5145,29.4205-9.9626,40.628-16.8115Z" transform="translate(-240.5312 -13)"/>
    <path class="cls-7" d="M723.5321,118.851c8.7172,1.5568,23.0383,6.5381,28.7977,21.482,22.26,58.0622-9.962,83.5909-63.0435,99.0016-21.7928,7.3162-50.1232,13.387-86.3931,16.1888A955.8146,955.8146,0,0,1,500,260.972a955.8217,955.8217,0,0,1-102.8933-5.4486c-36.2694-2.8018-64.6-8.8726-86.3932-16.1888C257.6325,223.9239,225.41,198.3952,247.67,140.333c5.7594-14.9439,20.0806-19.9252,28.9537-21.482-5.76,14.9439-7.3163,24.1278,7.0043,37.6708,54.4823,51.68,378.2616,51.68,432.7439,0,14.3212-13.543,12.7644-22.7269,7.16-37.6708Z" transform="translate(-240.5312 -13)"/>
    <path class="cls-8" d="M755.5989,149.9837c15.2553,51.3692-16.1888,74.7183-66.3126,89.3509-21.7928,7.3162-50.1232,13.387-86.3931,16.1888A955.8146,955.8146,0,0,1,500,260.972a955.8217,955.8217,0,0,1-102.8933-5.4486c-36.2694-2.8018-64.6-8.8726-86.3932-16.1888-49.9678-14.6326-81.5673-37.9817-66.3126-89.3509,9.1845,22.1042,33.779,35.3358,66.3126,44.6757,21.7928,7.4717,50.1238,13.3871,86.3932,16.1888A915.7415,915.7415,0,0,0,500,216.4522a915.7348,915.7348,0,0,0,102.8933-5.604c36.27-2.8017,64.6-8.7171,86.3931-16.1888,32.5336-9.34,57.1287-22.5715,66.3126-44.6757Z" transform="translate(-240.5312 -13)"/>
    <path class="cls-9" d="M500,118.3842c116.9031,0,212.3247-23.661,212.3247-52.6141C712.3246,36.661,616.903,13,500,13S287.6751,36.661,287.6751,65.77c0,28.9531,95.4216,52.6141,212.3248,52.6141Z" transform="translate(-240.5312 -13)"/>
    <path class="cls-10" d="M547.4773,113.0916c89.0395-4.2026,156.597-23.5051,156.597-46.8547,0-15.5661-30.0427-29.4205-76.4306-38.1376Z" transform="translate(-240.5312 -13)"/>
    <path class="cls-7" d="M500,95.8133c87.0158,0,157.9983-13.543,157.9983-30.0432,0-16.6561-70.9825-30.0432-157.9983-30.0432S342.002,49.114,342.002,65.77c0,16.5,70.982,30.0432,157.9979,30.0432Z" transform="translate(-240.5312 -13)"/>
    <path class="cls-9" d="M500,48.6472c-75.4965,0-138.696,10.118-154.262,23.5051,15.566,13.5424,78.7655,23.661,154.262,23.661s138.6959-10.1186,154.2625-23.661C638.6958,58.7652,575.4964,48.6472,500,48.6472Z" transform="translate(-240.5312 -13)"/>
    <path class="cls-7" d="M547.01,90.5206c47.0106-2.0236,84.0582-9.0285,94.3321-18.057-7.783-6.6935-30.8213-12.4529-61.954-15.5666C568.0247,69.1946,555.1049,82.893,547.01,90.5206Z" transform="translate(-240.5312 -13)"/>
    <path class="cls-11" d="M733.3393,132.394a26.0449,26.0449,0,0,1,15.2547,14.9434c21.3261,55.4164-22.1042,77.2092-66.3126,88.2613,9.1845-13.8544,15.4107-37.5148,2.0236-56.35,17.4343-5.2926,30.9773-11.6748,38.76-19.147,10.8961-10.2734,12.6089-18.0564,10.2739-27.7077Z" transform="translate(-240.5312 -13)"/>
    <g>
      <path d="M383.9032,444.45c-.0562-.2179-.1156-.5152-.1718-.89-.0578-.3732-.1321-.7414-.2262-1.108-.0941-.3649-.18-.6918-.2543-.9841l-.0594-.6853q-.0867-.3294-.3154-1.9022c-.1536-1.0485-.31-2.178-.464-3.3817-.1536-1.2021-.3319-2.3464-.5317-3.4214s-.3369-1.7619-.4112-2.0525a62.0338,62.0338,0,0,0-2.5363-5.7644,37.9091,37.9091,0,0,0-4.2436-6.7272,23.3813,23.3813,0,0,0-5.6027-5.208,7.7212,7.7212,0,0,0-6.3655-1.1575,15.2985,15.2985,0,0,0-5.8024,3.07,27.1812,27.1812,0,0,0-5.0314,5.38,20.8245,20.8245,0,0,0-3.1456,6.5884,11.8924,11.8924,0,0,0-.251,6.7189,10.0432,10.0432,0,0,0,1.3788,3.0845q.9535,1.449,1.9518,2.8236.9957,1.38,1.9683,2.8781a11.0433,11.0433,0,0,1,1.4217,3.25,7.7086,7.7086,0,0,1,.1849,2.7526c-.1024.961-.7761,1.6017-2.0145,1.92q-1.9716.51-3.821-1.4647a30.4908,30.4908,0,0,1-3.8069-5.2641q-1.9579-3.2868-4.15-7.0393a49.6161,49.6161,0,0,0-4.8042-6.8707,19.8609,19.8609,0,0,0-5.6671-4.7837,9.1476,9.1476,0,0,0-6.8848-.677,11.1289,11.1289,0,0,0-4.9273,2.6123,11.5018,11.5018,0,0,0-2.9161,4.3114,17.1918,17.1918,0,0,0-1.0848,5.2988,18.479,18.479,0,0,0,.5622,5.5745,62.6458,62.6458,0,0,0,2.8162,8.4346,61.9494,61.9494,0,0,1,2.7873,8.3255,11.3733,11.3733,0,0,1,.3913,2.8731q-.0038,1.345-1.8642,1.8247a3.4256,3.4256,0,0,1-2.18-.0826,5.1954,5.1954,0,0,1-1.7635-1.179,9.1832,9.1832,0,0,1-1.41-1.8527c-.4162-.71-.7728-1.3358-1.07-1.884q-.9363-4.5426-2.0889-8.3289-1.1492-3.79-2.3125-7.1647t-2.339-6.81q-1.1765-3.428-2.1928-7.37c-.0364-.1436-.1024-.4-.1965-.7661-.0942-.3633-.1751-.7513-.2411-1.1608s-.1428-.7811-.2279-1.1113c-.0842-.327-.1453-.5631-.1833-.71a1.9291,1.9291,0,0,1,.4062-.6885,1.9374,1.9374,0,0,0,.4062-.6886l.5466-.14a3.1494,3.1494,0,0,1,3.0746.6093,4.5653,4.5653,0,0,1,1.6091,2.6188,27.35,27.35,0,0,1,2.37-3.7054,13.3913,13.3913,0,0,1,2.2176-2.2621,8.4405,8.4405,0,0,1,2.457-1.3342q1.34-.4608,3.3091-.9693a23.9741,23.9741,0,0,1,5.9147-.824,17.6585,17.6585,0,0,1,5.1436.715,16.1531,16.1531,0,0,1,4.6912,2.35,43.6047,43.6047,0,0,1,4.6862,3.6955.9393.9393,0,0,1,.2873-.0165.894.894,0,0,0,.2873-.0166,6.27,6.27,0,0,0,.8273-1.3209q.7158-1.293,1.9765-3.1935,1.2608-1.9023,2.9838-4.27a48,48,0,0,1,3.7351-4.5228,33.0166,33.0166,0,0,1,4.2619-3.8424,13.2846,13.2846,0,0,1,4.6548-2.3068,14.4387,14.4387,0,0,1,7.0161-.1767,19.25,19.25,0,0,1,6.2565,2.7659,27.9475,27.9475,0,0,1,5.4343,4.7836,46.02,46.02,0,0,1,4.4566,5.9692,44.3368,44.3368,0,0,1,3.3488,6.4316,45.1177,45.1177,0,0,1,2.1,6.1079q.2825,1.0972.92,3.79a36.943,36.943,0,0,1,.8619,5.6126,17.9371,17.9371,0,0,1-.317,5.3334,3.4733,3.4733,0,0,1-2.5149,2.9227,2.1975,2.1975,0,0,1-1.5208-.0148,2.46,2.46,0,0,1-.8966-.7612,3.3323,3.3323,0,0,1-.5284-1.1477C384.1574,445.4357,384.0353,444.96,383.9032,444.45Z" transform="translate(-240.5312 -13)"/>
      <path d="M433.4336,418.8459a17.3682,17.3682,0,0,0-3.4329,4.5607q-1.2855,2.4916-2.68,4.7737a22.0783,22.0783,0,0,1-3.2992,4.1776,11.63,11.63,0,0,1-5.4061,2.7923,15.3041,15.3041,0,0,1-7.55.1387,19.88,19.88,0,0,1-6.82-3.144,32.7081,32.7081,0,0,1-5.961-5.4656,49.0025,49.0025,0,0,1-4.9008-6.7882,62.2012,62.2012,0,0,1-3.7252-7.2093,45.1991,45.1991,0,0,1-2.3646-6.6842q-2.4026-5.6794-2.0558-9.3295.3419-3.6485,1.8-5.0165a2.1973,2.1973,0,0,1,3.0135-.3087q1.5554,1.0575,1.5538,4.6746a4.4611,4.4611,0,0,0,.0247,1.4531c.0859.639.1784,1.2979.2742,1.9716q.1436,1.0129.2608,1.9171a12.1481,12.1481,0,0,0,.2015,1.2318,40.9231,40.9231,0,0,0,1.8329,5.3038,53.2137,53.2137,0,0,0,3.0482,6.1574,54.0052,54.0052,0,0,0,4.0851,6.1228,29.4758,29.4758,0,0,0,4.9306,5.0891,17.877,17.877,0,0,0,5.6423,3.0977,10.6,10.6,0,0,0,6.0584.1883,8.02,8.02,0,0,0,3.9927-3.0713,30.52,30.52,0,0,0,3.5749-5.8239,36.93,36.93,0,0,0,2.4058-6.5125,10.7683,10.7683,0,0,0,.3451-5.2229q-.2823-1.0923-.8768-3.6244t-1.3276-5.3781q-.733-2.8434-1.4365-5.3467-.7035-2.5017-.9578-3.4874a6.3559,6.3559,0,0,1,.9875-2.0641,3.0207,3.0207,0,0,1,1.7041-1.08q1.3126-.3369,2.6386,1.1856a18.6379,18.6379,0,0,1,2.5793,4.12,48.2117,48.2117,0,0,1,2.29,5.7117q1.0354,3.1184,1.9072,6.0435c.58,1.95,1.1,3.6674,1.5588,5.14a16.4335,16.4335,0,0,0,1.103,2.9243A45.8378,45.8378,0,0,0,441.31,416.58q1.7463,2.4693,3.3933,4.7852,1.6472,2.321,2.964,4.2553a11.0269,11.0269,0,0,1,1.5984,3.0316q.4211,1.64-.4227,2.2094a7.4748,7.4748,0,0,1-2.2688.933,3.48,3.48,0,0,1-2.7972-.2131,5.4647,5.4647,0,0,1-1.7817-1.9336,22.1953,22.1953,0,0,1-1.3771-2.8533,25.3,25.3,0,0,0-1.5869-3.2083,13.6454,13.6454,0,0,0-2.2688-2.9161A7.3729,7.3729,0,0,0,433.4336,418.8459Z" transform="translate(-240.5312 -13)"/>
      <path d="M450.197,417.3251a4.5093,4.5093,0,0,1,1.3738-1.23,7.3961,7.3961,0,0,1,1.5456-.5746,4.5325,4.5325,0,0,1,2.0971-.0149,9.0145,9.0145,0,0,1,2.1135.7381c.6721.3352,1.3524.6456,2.0509.9313a9.9316,9.9316,0,0,0,2.1416.6159q3.1531.4707,5.05.7992a27.6721,27.6721,0,0,0,3.43.4,14.4814,14.4814,0,0,0,3.423-.3q1.8874-.3666,4.8415-1.1311,2.2984-.592,5.5944-1.3837a29.6791,29.6791,0,0,0,6.0963-2.1549,12.5293,12.5293,0,0,0,4.47-3.4874,5.9265,5.9265,0,0,0,.8256-5.4062,6.611,6.611,0,0,0-2.98-4.5409,12.32,12.32,0,0,0-5.5878-1.5356,34.6113,34.6113,0,0,0-7.2473.4111q-3.9307.6019-8.0911,1.21a81.95,81.95,0,0,1-8.2561.786,24.6085,24.6085,0,0,1-7.6122-.7811,13.9677,13.9677,0,0,1-6.1658-3.5435,16.1909,16.1909,0,0,1-4.0009-7.3711,10.1588,10.1588,0,0,1,1.9385-6.7437,20.2821,20.2821,0,0,1,5.743-5.3318,28.7644,28.7644,0,0,1,7.9243-3.4428,26.5787,26.5787,0,0,1,8.3256-.9792,14.9106,14.9106,0,0,1,7.0722,2.0871,9.27,9.27,0,0,1,4.1793,5.573,8.2027,8.2027,0,0,1,.6027,3.6971,4.917,4.917,0,0,1-.9264,2.5132,2.9418,2.9418,0,0,1-1.747,1.1509,2.0348,2.0348,0,0,1-1.7305-.37,3.2548,3.2548,0,0,1-1.027-1.9534,8.2384,8.2384,0,0,1,.37-3.7714,5.0586,5.0586,0,0,0-3.3635-2.6338,15.1755,15.1755,0,0,0-5.2526-.4541,22.8723,22.8723,0,0,0-5.91,1.288,25.0886,25.0886,0,0,0-5.3946,2.6172,12.2951,12.2951,0,0,0-3.565,3.37,3.785,3.785,0,0,0-.5218,3.636,6.8666,6.8666,0,0,0,3.2265,4.5938,13.29,13.29,0,0,0,5.6985,1.5059,36.8581,36.8581,0,0,0,7.4239-.3963q4.1067-.5895,8.42-1.2946,4.31-.7009,8.4345-1.0072a25.9729,25.9729,0,0,1,7.7179.5185,13.66,13.66,0,0,1,6.1772,3.134,13.3333,13.3333,0,0,1,3.7351,6.7981,10.1637,10.1637,0,0,1-.241,6.3045,15.3994,15.3994,0,0,1-3.3752,5.2459,20.834,20.834,0,0,1-5.2327,3.9184,26.5807,26.5807,0,0,1-5.8207,2.3167q-2.8484.7332-6.0864,1.5109-3.2446.7778-6.6644,1.3094a65.2345,65.2345,0,0,1-7,.6952,26.0307,26.0307,0,0,1-6.8559-.5664,21.1042,21.1042,0,0,1-6.1707-2.4356A17.81,17.81,0,0,1,450.197,417.3251Z" transform="translate(-240.5312 -13)"/>
      <path d="M514.5952,374.7q-.8767.228-3.0647.7893a29.1025,29.1025,0,0,1-4.64.7893,17.1605,17.1605,0,0,1-4.5921-.1585,2.8387,2.8387,0,0,1-2.5628-2.0228,7.2358,7.2358,0,0,1-.16-1.3028.9722.9722,0,0,1,.8272-1.0881l11.0171-3.89q-.6069-4.1586-1.05-6.7882a37.504,37.504,0,0,0-1.1311-4.8439q-.6885-2.2131-1.4861-4.635-.8-2.42-1.9253-6.33a2.0484,2.0484,0,0,1,.0181-1.288,2.1555,2.1555,0,0,1,.6523-.8694,4.9976,4.9976,0,0,1,1.0105-.61,5.8568,5.8568,0,0,1,.9016-.3492,2.7154,2.7154,0,0,1,1.48.085,5.3866,5.3866,0,0,1,1.5406.7687,6.56,6.56,0,0,1,1.2285,1.1434,3.3687,3.3687,0,0,1,.68,1.2822L519.49,365.62l9.5243-1.9881a5.5763,5.5763,0,0,1,3.6294-.1783,3.996,3.996,0,0,1,2.5842,3.01,5.3929,5.3929,0,0,1-2.7361,2.5132,23.1656,23.1656,0,0,1-3.8275,1.2219q-2.0411.4681-3.9944,1.03a6.8847,6.8847,0,0,0-3.2331,1.94q.1685.6588,1.0386,3.5831.8694,2.9277,2.0244,6.9468,1.1543,4.0248,2.5033,8.5749,1.3474,4.5523,2.46,8.4081,1.1072,3.8589,1.8692,6.58.76,2.722.8454,3.0482-2.1252,2.18-4.12.7711a14.0162,14.0162,0,0,1-3.8441-4.7258,50.0913,50.0913,0,0,1-3.4577-7.9788q-1.6125-4.6614-2.8633-9.2981-1.2556-4.6366-2.16-8.6029Q514.8265,376.5056,514.5952,374.7Z" transform="translate(-240.5312 -13)"/>
      <path d="M543.4952,387.6722a14.0522,14.0522,0,0,1-.005-4.5508,16.7393,16.7393,0,0,1,1.851-5.4937,21.7,21.7,0,0,1,4.1942-5.459,24.0462,24.0462,0,0,1,6.8328-4.5029,34.9546,34.9546,0,0,1,9.8216-2.647,52.94,52.94,0,0,1,13.1554.11c-.0182-.0727-.1123-.4393-.2824-1.0965l-.3633-.956a12.271,12.271,0,0,0-3.1373-5.3756,21.6691,21.6691,0,0,0-5.5812-4.2214,25.0532,25.0532,0,0,0-6.5125-2.4067,13.1341,13.1341,0,0,0-6.07-.0091,5.3181,5.3181,0,0,0-1.8312.8207,9.7406,9.7406,0,0,0-1.3755,1.231c-.426.459-.8422.88-1.2517,1.2566a3.6409,3.6409,0,0,1-1.5951.82c-.1486.038-.23.02-.2493-.0545-.0908-.052-.1833-.1073-.2758-.161q-.2748-.1635-.7414-.393c-.312-.1519-.4772-.265-.497-.3393a7.7292,7.7292,0,0,1-.1618-3.5749,6.2068,6.2068,0,0,1,1.3771-2.8046,10.5744,10.5744,0,0,1,2.4917-2.1021A11.5246,11.5246,0,0,1,556.5,344.41a21.9968,21.9968,0,0,1,9.062.5218,34.0251,34.0251,0,0,1,8.7829,3.7458,38.6239,38.6239,0,0,1,7.8715,6.316,59.9775,59.9775,0,0,1,6.5834,8.1051,44.344,44.344,0,0,1,4.711,8.9959,38.3364,38.3364,0,0,1,2.5347,9.3823c-.0727.02-.2956.0578-.67.1156s-.7844.1272-1.2319.2a7.2573,7.2573,0,0,1-1.136.1189l-.5763.0314a32.9565,32.9565,0,0,0-7.2852-6.9914,29.5981,29.5981,0,0,0-6.92-3.5254,21.0524,21.0524,0,0,0-5.8454-1.1773q-2.5932-.0891-4.2073-.0248-1.6422.4236-3.8276,1.222a38.5374,38.5374,0,0,0-8.9414,4.6977,21.0693,21.0693,0,0,0-3.7995,3.37,11.1463,11.1463,0,0,0-2.2606,3.9085,7.938,7.938,0,0,0-.0627,4.51,5.8275,5.8275,0,0,0,3.2216,3.8953,17.5763,17.5763,0,0,0,5.7941,1.6578,28.0081,28.0081,0,0,0,6.4283.0347,37.7031,37.7031,0,0,0,5.0363-.8322,56.2311,56.2311,0,0,0,5.9329-1.8791q2.8731-1.09,5.6588-2.2754,2.784-1.184,5.5465-2.2457a50.9444,50.9444,0,0,1,5.6059-1.7949c.1453-.038.4-.104.7662-.1982q.5449-.1412,1.1625-.241c.4095-.0677.781-.1437,1.11-.2279q.49-.1263.71-.1833a1.3854,1.3854,0,0,1,1.2384.73,8.1749,8.1749,0,0,1,.4475,1.2847q.171.6588-1.0006,1.7751a23.5921,23.5921,0,0,1-3.1605,2.45q-1.9914,1.3326-4.4616,2.84-2.4695,1.5159-4.7886,2.6949-2.3208,1.184-4.356,2.1135a20.3362,20.3362,0,0,1-2.9111,1.1592,68.504,68.504,0,0,1-9.9371,1.7454,34.3086,34.3086,0,0,1-10.13-.3633,19.7466,19.7466,0,0,1-8.51-3.8193A15.2572,15.2572,0,0,1,543.4952,387.6722Z" transform="translate(-240.5312 -13)"/>
      <path d="M630.8819,347.756q2.2985-.5919,2.5346,1.6818a1.5435,1.5435,0,0,1,.5235,2.258,6.9644,6.9644,0,0,1-3.0515,2.42,29.5532,29.5532,0,0,1-5.9065,1.9906,44.1242,44.1242,0,0,1-8.1174,1.0989,16.8408,16.8408,0,0,0,3.9167,7.2753,67.5051,67.5051,0,0,0,5.9907,5.8107q3.1431,2.685,5.9031,5.2444a11.6318,11.6318,0,0,1,3.5486,5.6208,1.9323,1.9323,0,0,1-.3947,2.0871,3.7038,3.7038,0,0,1-1.856.9429,4.5042,4.5042,0,0,1-2.566-.2147,11.1471,11.1471,0,0,1-2.8187-1.43,25.6443,25.6443,0,0,1-2.5643-2.0244q-1.1047-1.1123-1.7669-1.8775-.6637-.7629-1.9071-2.1928-1.2459-1.4292-2.9046-3.3372-1.6569-1.9047-3.3586-3.9762-1.699-2.0706-3.3025-3.991-1.605-1.9183-2.8219-3.4742a23.7229,23.7229,0,0,1-1.8527-2.2061l-1.5142-.8933a12.4238,12.4238,0,0,1-1.8973,1.0139q-1.4069.6576-2.9639,1.4068-1.5555.7518-3.0036,1.4729a12.4477,12.4477,0,0,1-2.1037.895l-.5466.14a1.2849,1.2849,0,0,1-1.3589-.2923,3.1583,3.1583,0,0,1-.71-1.3928,3.4526,3.4526,0,0,1,.5813-3.1844,8.7241,8.7241,0,0,1,2.8054-2.2408,27.3185,27.3185,0,0,1,3.73-1.6025q1.9815-.6849,3.2661-1.1327-1.065-3.2274-2.33-7.6849a69.6461,69.6461,0,0,1-1.9616-9.4137,65.8609,65.8609,0,0,1-.6341-9.9322,31.3947,31.3947,0,0,1,1.4531-9.3006,19.8245,19.8245,0,0,1,4.4121-7.556,16.7094,16.7094,0,0,1,8.2727-4.5822,17.3034,17.3034,0,0,1,6.8361-.1882,28.5531,28.5531,0,0,1,7.5131,2.2052,24.0505,24.0505,0,0,1,6.3738,4.1347A11.3533,11.3533,0,0,1,637.865,316.9l-2.5165.6489a5.5949,5.5949,0,0,1-4.3081-.6423q-2.12-1.2013-4.5013-2.7469a34.8834,34.8834,0,0,0-4.8827-2.65,7.642,7.642,0,0,0-5.13-.4285,14.5921,14.5921,0,0,0-6.3606,3.39,17.424,17.424,0,0,0-4.1248,5.7314,19.7514,19.7514,0,0,0-1.7024,6.974,23.0508,23.0508,0,0,0,.6819,7.1747l.2824,1.0947,6.0039,15.141a2.7166,2.7166,0,0,0,1.3028.0727q1.0254-.09,3.23-.3682,2.2069-.2725,5.8471-.8636Q625.3246,348.8408,630.8819,347.756Z" transform="translate(-240.5312 -13)"/>
      <path d="M642.4174,362.1721a14.05,14.05,0,0,1-.0066-4.5508,16.74,16.74,0,0,1,1.8511-5.4937,21.6681,21.6681,0,0,1,4.1958-5.4589,24.0387,24.0387,0,0,1,6.8311-4.503,34.9732,34.9732,0,0,1,9.8216-2.6469,52.9778,52.9778,0,0,1,13.1554.11c-.0165-.0726-.1123-.4392-.2807-1.0964l-.365-.9561a12.2678,12.2678,0,0,0-3.1356-5.3756,21.6713,21.6713,0,0,0-5.5812-4.2214,25.0968,25.0968,0,0,0-6.5125-2.4066,13.1413,13.1413,0,0,0-6.0716-.0091,5.31,5.31,0,0,0-1.83.8206,9.6645,9.6645,0,0,0-1.3755,1.231c-.426.4591-.8437.88-1.2516,1.2566a3.6451,3.6451,0,0,1-1.5984.82c-.1453.0379-.2279.02-.246-.0545-.0925-.052-.185-.1074-.2758-.161q-.2773-.1635-.743-.393-.4681-.2279-.4954-.3393a7.7326,7.7326,0,0,1-.1635-3.575,6.2085,6.2085,0,0,1,1.3788-2.8046,10.5633,10.5633,0,0,1,2.49-2.102,11.5413,11.5413,0,0,1,3.2116-1.3524,21.9986,21.9986,0,0,1,9.062.5218,34.0442,34.0442,0,0,1,8.7846,3.7458,38.713,38.713,0,0,1,7.8714,6.316,59.9726,59.9726,0,0,1,6.5819,8.1051,44.3426,44.3426,0,0,1,4.7109,8.9951,38.4126,38.4126,0,0,1,2.5363,9.384c-.0743.019-.2972.057-.67.1148-.3748.0578-.7843.1263-1.2334.2a7.1275,7.1275,0,0,1-1.1361.1189l-.5746.0313a32.9466,32.9466,0,0,0-7.2886-6.9913,29.5767,29.5767,0,0,0-6.917-3.5254,21.0885,21.0885,0,0,0-5.847-1.1773q-2.5908-.0892-4.2074-.024-1.64.4224-3.8275,1.22a38.5529,38.5529,0,0,0-8.9431,4.6986,21.2175,21.2175,0,0,0-3.7979,3.37,11.2005,11.2005,0,0,0-2.26,3.9076,7.9264,7.9264,0,0,0-.0628,4.51,5.8305,5.8305,0,0,0,3.2216,3.8961,17.5624,17.5624,0,0,0,5.7958,1.6561,27.937,27.937,0,0,0,6.4266.0355,37.448,37.448,0,0,0,5.0363-.8322,56.1471,56.1471,0,0,0,5.9346-1.8791q2.8706-1.09,5.6571-2.2754,2.784-1.1839,5.5481-2.2457a51.1294,51.1294,0,0,1,5.6043-1.7957c.147-.0371.4013-.1032.7662-.1973s.7513-.1742,1.1641-.2419c.4079-.0669.7794-.1429,1.108-.2271.327-.085.5647-.1461.71-.1833a1.38,1.38,0,0,1,1.2385.73,8.3592,8.3592,0,0,1,.4491,1.2847q.1685.6588-1.0006,1.7759a23.6279,23.6279,0,0,1-3.1622,2.4487q-1.9914,1.3326-4.46,2.841-2.472,1.5159-4.7919,2.6948-2.3184,1.1839-4.356,2.1136a20.2636,20.2636,0,0,1-2.9095,1.1592,68.5043,68.5043,0,0,1-9.9371,1.7453,34.2961,34.2961,0,0,1-10.1287-.3632,19.73,19.73,0,0,1-8.51-3.8194A15.24,15.24,0,0,1,642.4174,362.1721Z" transform="translate(-240.5312 -13)"/>
    </g>
    <path class="cls-12" d="M683.8383,690.4463c12.7643-94.1762,26.3068-213.57,37.2035-313.35C679.48,396.3989,597.29,409.63,502.8021,409.63s-176.678-13.2311-218.24-32.5336c10.8967,99.78,24.4391,219.1737,37.2035,313.35C366.908,702.4325,431.1969,710.06,502.8021,710.06c71.4493,0,135.8937-7.6276,181.0362-19.6138Z" transform="translate(-240.5312 -13)"/>
    <path class="cls-13" d="M706.2538,383.1672c-3.269,1.09-6.6935,2.335-10.4293,3.4245L656.286,696.6731c3.4245-.6228,6.8489-1.2455,10.118-2.0236Zm-44.52,12.1416c-3.4245.6227-6.6936,1.2455-10.274,1.8682l-28.7977,305.1c3.425-.4673,6.6935-.9341,9.9626-1.4014Zm-52.4588,8.25c-3.4244.4667-6.6935.7781-10.118,1.2454l-15.0992,301.831c3.4244-.3113,6.6935-.6227,10.1179-.934Zm-47.7882,4.3585c-3.2691.156-6.5381.3114-9.9626.4668l-4.9813,300.5861c3.2691-.1559,6.6935-.3114,9.9626-.4673Zm-48.4115,1.5568c-3.2691.1555-6.5376.1555-9.9626.1555L508.25,709.9042h9.9626Zm-53.3923-.7786c-3.2691-.1554-6.5381-.3114-9.9626-.4668l5.1367,300.5856c3.269.1559,6.5381.3113,9.9626.4673ZM412.05,405.2714c-3.269-.3114-6.6935-.6227-9.9626-.9341l15.0993,301.831c3.2691.3114,6.5381.6228,9.9626.9341Zm-52.3028-7.0049c-3.425-.6227-6.8494-1.2449-10.1185-1.8676l28.9537,305.2555c3.269.4667,6.6935.934,10.118,1.4008Zm-44.2083-9.962c-3.5805-1.09-7.1609-2.18-10.4294-3.2691l39.6939,310.86q5.1366.9333,10.2739,1.8677Z" transform="translate(-240.5312 -13)"/>
    <path class="cls-14" d="M326.4354,391.2616c-16.6561-4.2026-30.6654-9.0285-41.8734-14.1652,10.8967,99.78,24.4391,219.1737,37.0481,313.35q22.415,5.8377,50.4346,10.274c-49.19-94.1762-63.9776-209.2112-45.6093-309.4587Z" transform="translate(-240.5312 -13)"/>
    <path class="cls-15" d="M719.7963,389.238l1.2455-12.1416-.6228.3114-5.604-4.3586-4.2026,8.4058c-44.053,16.9675-120.639,28.175-207.81,28.175-87.6386,0-164.6919-11.3635-208.5889-28.4864l-4.0472-8.0944-5.2926,4.2032-.3114-.156,1.2455,12.1416c42.0288,18.9911,123.4407,31.9114,216.9946,31.9114s174.8094-12.92,216.9942-31.9114Z" transform="translate(-240.5312 -13)"/>
  </g>
</svg>
